<?xml version="1.0" encoding="UTF-8"?>
<svg version="1.1" xmlns="http://www.w3.org/2000/svg" width="749" height="749">
<path d="M0 0 C247.17 0 494.34 0 749 0 C749 247.17 749 494.34 749 749 C501.83 749 254.66 749 0 749 C0 501.83 0 254.66 0 0 Z " fill="#1D3E6B" transform="translate(0,0)"/>
<path d="M0 0 C1.16917969 0.21527344 2.33835937 0.43054688 3.54296875 0.65234375 C51.29535039 10.30374981 95.1842366 40.19206729 122.1875 80.625 C123.43485798 82.52186145 124.67523096 84.42297733 125.91064453 86.32763672 C126.84318946 87.75926666 127.79294484 89.17966066 128.74609375 90.59765625 C131.05716229 94.10026721 132 95.69062808 132 100 C132.66 100 133.32 100 134 100 C135.76462683 103.08809695 136 104.23312136 136 108 C136.66 108 137.32 108 138 108 C138.33 110.31 138.66 112.62 139 115 C139.66 115 140.32 115 141 115 C146.51376027 130.11119891 150.23427839 145.15929292 153 161 C153.17885742 161.93118652 153.35771484 162.86237305 153.54199219 163.82177734 C154.08763832 167.60814267 154.21767627 171.35009943 154.2734375 175.16796875 C154.28596558 175.95216187 154.29849365 176.73635498 154.31140137 177.54431152 C155.08625471 237.8552148 155.08625471 237.8552148 140 257 C139.31235207 258.89509272 138.69140311 260.81520708 138.125 262.75 C136.67760164 267.27243715 135.06435916 270.97249093 132.40625 274.88671875 C130.69568513 277.45731762 129.20596032 280.12413502 127.6875 282.8125 C122.02896655 292.54958678 115.10560274 301.28807749 108 310 C104.39872883 308.5292822 102.65555053 306.63253476 100.3125 303.5625 C99.61640625 302.6653125 98.9203125 301.768125 98.203125 300.84375 C97.47609375 299.9053125 96.7490625 298.966875 96 298 C94.52711228 296.18239387 93.0478928 294.36990103 91.5625 292.5625 C90.81097656 291.64597656 90.05945313 290.72945313 89.28515625 289.78515625 C88.53105469 288.86605469 87.77695312 287.94695312 87 287 C85.49971683 285.16689838 83.99971592 283.33356573 82.5 281.5 C81.39205078 280.14648438 81.39205078 280.14648438 80.26171875 278.765625 C78.72096287 276.8815919 77.1819701 274.99611588 75.64453125 273.109375 C74.87496094 272.16578125 74.10539062 271.2221875 73.3125 270.25 C72.21228516 268.89068359 72.21228516 268.89068359 71.08984375 267.50390625 C69.25786113 265.30895137 67.34442501 263.25698818 65.375 261.1875 C63 258 63 258 63.11328125 255.18359375 C64.13441813 251.51739745 65.68482141 249.0250696 67.8125 245.875 C71.16173478 240.72136127 73.38671404 235.7180087 75.13671875 229.828125 C75.95679958 227.14152537 76.95241724 224.64022026 78.0625 222.0625 C82.48482167 211.05349593 83.51146652 200.29384173 83.44604492 188.57226562 C83.43755891 186.2660094 83.46637358 183.96226224 83.49804688 181.65625 C83.64309832 150.96295558 69.62209096 123.17702322 48.75 101.3125 C33.36268783 86.4708372 15.31525378 77.2156171 -5 71 C-5.65532715 70.78827148 -6.3106543 70.57654297 -6.98583984 70.35839844 C-30.03796516 63.12343645 -55.83734115 65.15887931 -78 74 C-78.86536377 74.33418945 -79.73072754 74.66837891 -80.62231445 75.01269531 C-106.83989211 85.25136741 -131.2179849 105.44070686 -143.5234375 131.1875 C-144.42676504 133.44261556 -145.26971022 135.68378241 -146 138 C-146.66 138 -147.32 138 -148 138 C-148.12955078 138.93005859 -148.12955078 138.93005859 -148.26171875 139.87890625 C-149.39145526 146.99935562 -151.43302806 153.56720809 -153.87890625 160.32421875 C-156.49662287 168.90704572 -156.18301809 177.59893533 -156.1875 186.5 C-156.19974609 187.78003906 -156.21199219 189.06007813 -156.22460938 190.37890625 C-156.23485979 196.98700518 -155.90736836 202.67782397 -154 209 C-153.68478667 210.93380874 -153.39106404 212.8713185 -153.125 214.8125 C-152.29536443 220.08470024 -150.79354061 224.77955782 -148.8046875 229.72265625 C-148 232 -148 232 -148 235 C-147.34 235 -146.68 235 -146 235 C-145.32332002 236.24460783 -144.65905281 237.49596896 -144 238.75 C-143.62875 239.44609375 -143.2575 240.1421875 -142.875 240.859375 C-142 243 -142 243 -142 247 C-141.34 247 -140.68 247 -140 247 C-138.44845995 249.22255835 -136.99712458 251.4536044 -135.5625 253.75 C-130.70923117 261.25940167 -125.30308785 267.67861581 -119 274 C-118.24589844 274.77730469 -117.49179687 275.55460937 -116.71484375 276.35546875 C-99.80130777 292.74680293 -73.56290428 304.96628505 -50 306 C-47.86658668 305.93055922 -45.73372586 305.8429537 -43.6015625 305.7421875 C-24.31533886 305.08705196 -24.31533886 305.08705196 -18.53125 310.3515625 C-15.40627806 313.87608177 -12.85827525 317.72461909 -10.41162109 321.74169922 C-8.29930247 325.12097063 -5.81928891 328.15922065 -3.3125 331.25 C-2.42322134 332.38834142 -1.53518493 333.52765445 -0.6484375 334.66796875 C2.00530518 338.03875309 4.77257421 341.30423899 7.5625 344.5625 C11.35177507 349.01433585 15.10526014 353.49120813 18.75 358.0625 C19.4143103 358.86699585 19.4143103 358.86699585 20.09204102 359.68774414 C23.03332383 363.4348252 23.03332383 363.4348252 22.87768555 366.07446289 C22 368 22 368 20.12133789 368.95458984 C19.30914795 369.16293457 18.49695801 369.3712793 17.66015625 369.5859375 C16.75410645 369.8240918 15.84805664 370.06224609 14.91455078 370.30761719 C13.95274902 370.53610352 12.99094727 370.76458984 12 371 C11.06526855 371.2259082 10.13053711 371.45181641 9.16748047 371.68457031 C6.26343246 372.36209885 3.35306112 372.99899483 0.4375 373.625 C-0.53896484 373.8415625 -1.51542969 374.058125 -2.52148438 374.28125 C-48.85437108 384.32262478 -98.61236722 372.43808335 -138.48046875 347.8984375 C-149.13534462 340.97897089 -158.73491435 332.66327495 -168 324 C-168.93585938 323.12988281 -169.87171875 322.25976562 -170.8359375 321.36328125 C-182.73547203 310.03657791 -193.29588121 296.5470521 -201 282 C-201 281.34 -201 280.68 -201 280 C-201.66 280 -202.32 280 -203 280 C-203.81604999 278.0848421 -204.62770632 276.16781166 -205.4375 274.25 C-205.88996094 273.18265625 -206.34242188 272.1153125 -206.80859375 271.015625 C-207.73979553 268.6586159 -208.4784072 266.47007165 -209 264 C-209.66 264 -210.32 264 -211 264 C-213.37243567 257.01271686 -215.70029793 250.01154189 -218 243 C-218.40089844 241.78957031 -218.80179688 240.57914063 -219.21484375 239.33203125 C-220.27366614 235.90893077 -221.16629258 232.4851117 -222 229 C-222.18191895 228.26297852 -222.36383789 227.52595703 -222.55126953 226.76660156 C-226.00978833 212.11978907 -226.37689178 197.66205031 -226.375 182.6875 C-226.37681274 181.74725983 -226.37862549 180.80701965 -226.38049316 179.83828735 C-226.37777284 167.36765756 -225.89535017 155.96351465 -221.65234375 144.12109375 C-221.00120663 142.00392336 -220.70700619 140.07602504 -220.5 137.875 C-219.96720413 133.74583202 -218.68978309 130.78511413 -217 127 C-216.52433124 125.03390247 -216.04912835 123.06764557 -215.58984375 121.09765625 C-214.71942003 118.00217586 -213.4069889 115.16749437 -212.05078125 112.2578125 C-211.39499049 110.84871563 -210.76296959 109.42801113 -210.16796875 107.9921875 C-204.60706461 94.63586066 -196.72062232 82.47999415 -188 71 C-187.34 70.11441406 -186.68 69.22882813 -186 68.31640625 C-165.16206012 41.57709667 -133.37026686 15.63701025 -100 7 C-98.5193539 6.54646876 -97.0402417 6.08790704 -95.5625 5.625 C-93.71024693 5.07682542 -91.85572348 4.53630883 -90 4 C-89.35450195 3.81147461 -88.70900391 3.62294922 -88.04394531 3.42871094 C-58.53378198 -5.09229872 -30.12904059 -6.15086979 0 0 Z " fill="#FDFDFD" transform="translate(407,196)"/>
<path d="M0 0 C1.26086426 0.26844727 2.52172852 0.53689453 3.82080078 0.81347656 C17.34331806 3.82008072 30.0222278 8.24162356 42.5625 14.125 C43.68092285 14.64610352 44.7993457 15.16720703 45.95166016 15.70410156 C55.2129214 20.08477012 64.05270162 24.93188114 72.6875 30.4375 C73.72261719 31.08976562 74.75773437 31.74203125 75.82421875 32.4140625 C87.97696323 40.29955491 99.47624372 49.274454 110.6875 58.4375 C110.22273675 62.70931313 107.52859374 64.9642819 104.5859375 67.796875 C104.07124908 68.3049469 103.55656067 68.8130188 103.02627563 69.33648682 C101.37864067 70.96075614 99.72122766 72.57456692 98.0625 74.1875 C95.89981174 76.30341011 93.74148567 78.42369254 91.5859375 80.546875 C91.06361542 81.06051605 90.54129333 81.5741571 90.00314331 82.10336304 C86.58051845 85.49092044 83.36237105 88.98835105 80.24365234 92.65429688 C77.58966959 95.69550962 74.69838573 98.49341718 71.8125 101.3125 C67.76972494 105.00540637 67.76972494 105.00540637 64.6875 109.4375 C60.37862796 108.92503706 57.64226801 106.17131584 54.4375 103.5 C34.14598152 87.16417122 10.39801876 75.41001364 -14.3125 67.4375 C-15.10978516 67.17855957 -15.90707031 66.91961914 -16.72851562 66.65283203 C-32.55090452 61.58420239 -47.26187912 60.02898954 -63.8125 60.0625 C-65.25813324 60.06281723 -65.25813324 60.06281723 -66.73297119 60.06314087 C-85.81726943 60.10461736 -104.44214705 61.70035621 -123.3125 64.4375 C-124.72799922 64.63756884 -126.14352661 64.83743856 -127.55908203 65.03710938 C-131.62815984 65.61704666 -135.6892917 66.23897628 -139.75 66.875 C-141.52576416 67.14606567 -141.52576416 67.14606567 -143.33740234 67.42260742 C-151.45990278 68.78915616 -158.74418638 71.21078908 -166.3125 74.4375 C-167.03864502 74.74437744 -167.76479004 75.05125488 -168.51293945 75.36743164 C-188.63905676 84.1228612 -208.5296103 96.18205086 -224.4453125 111.41015625 C-224.98381836 111.92126953 -225.52232422 112.43238281 -226.07714844 112.95898438 C-227.1312226 113.9676739 -228.17412948 114.98819622 -229.20410156 116.02148438 C-232.75161435 119.4322776 -232.75161435 119.4322776 -235.41015625 119.45703125 C-244.55174464 114.55774055 -252.16296379 104.65874328 -259.35961914 97.35400391 C-263.60997227 93.05674126 -267.92920007 88.93599644 -272.51318359 84.99658203 C-275.03696361 82.8097626 -277.42892813 80.52693165 -279.8125 78.1875 C-281.09640625 76.94226563 -281.09640625 76.94226563 -282.40625 75.671875 C-284.3125 73.4375 -284.3125 73.4375 -284.3125 70.4375 C-282.984375 69 -282.984375 69 -281.0625 67.4375 C-277.5473732 64.50516036 -274.20023334 61.45885872 -270.875 58.3125 C-250.59881159 39.55149822 -225.85062854 23.03706306 -200.3125 12.4375 C-198.74872425 11.69016363 -197.18617402 10.94025623 -195.625 10.1875 C-180.69183821 3.42186344 -164.96615209 -0.96800258 -149.08569336 -4.8737793 C-147.19258481 -5.34393153 -145.30284029 -5.82778781 -143.41625977 -6.32348633 C-95.74105558 -18.730386 -47.24761185 -10.18295625 0 0 Z " fill="#FDFDFD" transform="translate(451.3125,106.5625)"/>
<path d="M0 0 C14.21369006 6.61741833 25.12691185 29.87818642 33 43 C33.66 43.99 34.32 44.98 35 46 C35 47.32 35 48.64 35 50 C35.66 50 36.32 50 37 50 C38.7568978 53.45486972 40.50420612 56.91450781 42.25 60.375 C42.98669922 61.82326172 42.98669922 61.82326172 43.73828125 63.30078125 C47.96120984 71.69033272 51.42006279 79.97021977 54 89 C54.60999627 90.54194937 55.235157 92.07794177 55.87109375 93.609375 C61.7445594 108.18299451 64.83521403 123.07598852 66.57006836 138.64160156 C66.90635465 141.2684921 67.29663324 143.86402834 67.72875977 146.47558594 C69.98950631 160.43243885 70.59864739 174.12271847 70.5625 188.25 C70.56234894 189.3848584 70.56219788 190.5197168 70.56204224 191.68896484 C70.51128371 211.1720362 68.64360597 229.08234227 64 248 C63.68502219 249.34426194 63.37207691 250.68900155 63.06103516 252.03417969 C57.78556595 274.82165107 57.78556595 274.82165107 55 279 C54.54860541 281.0492094 54.54860541 281.0492094 54.375 283.1875 C54.189375 285.0746875 54.189375 285.0746875 54 287 C53.34 287 52.68 287 52 287 C51.731875 287.99 51.46375 288.98 51.1875 290 C49.20476226 296.84451932 46.49042386 303.23722982 43.5 309.6875 C43.05491089 310.65042969 43.05491089 310.65042969 42.60083008 311.6328125 C40.91549355 315.22272391 39.0443785 318.60644952 37 322 C36.28856912 323.98451771 35.61008664 325.98202112 35 328 C34.34 328 33.68 328 33 328 C32.77441406 328.64839844 32.54882812 329.29679687 32.31640625 329.96484375 C30.54080581 334.05873556 28.27118234 337.76509966 25.9375 341.5625 C25.44507813 342.36389404 24.95265625 343.16528809 24.4453125 343.9909668 C15.82390252 357.85456162 5.27542177 370.15083906 -5.5625 382.31640625 C-7.12941683 384.15157243 -8.57089696 386.05624973 -10 388 C-12.77341692 387.64490468 -13.85799523 387.14778226 -15.82421875 385.1015625 C-16.74654297 383.87566406 -16.74654297 383.87566406 -17.6875 382.625 C-18.38359375 381.71878906 -19.0796875 380.81257813 -19.796875 379.87890625 C-20.52390625 378.92886719 -21.2509375 377.97882813 -22 377 C-23.47161107 375.18136008 -24.95083265 373.36885281 -26.4375 371.5625 C-27.57445312 370.17611328 -27.57445312 370.17611328 -28.734375 368.76171875 C-29.85585938 367.39466797 -29.85585938 367.39466797 -31 366 C-33.13088085 363.39247475 -35.26130229 360.78457911 -37.390625 358.17578125 C-39.44964722 355.66149369 -41.52800244 353.16377868 -43.609375 350.66796875 C-44.24077393 349.90822754 -44.87217285 349.14848633 -45.52270508 348.36572266 C-46.77978415 346.85363749 -48.03994411 345.34410728 -49.3034668 343.83740234 C-49.88265869 343.13953613 -50.46185059 342.44166992 -51.05859375 341.72265625 C-51.57736084 341.10140869 -52.09612793 340.48016113 -52.63061523 339.84008789 C-54.02067819 337.97221403 -55.02554865 336.11009671 -56 334 C-55.39414062 333.29617188 -54.78828125 332.59234375 -54.1640625 331.8671875 C-45.58596763 321.75823262 -37.58700897 311.32302203 -31.15625 299.6953125 C-30.58390625 298.85613281 -30.58390625 298.85613281 -30 298 C-29.34 298 -28.68 298 -28 298 C-27.814375 296.88625 -27.814375 296.88625 -27.625 295.75 C-27.04513299 293.19858515 -26.26291261 291.2732427 -25 289 C-24.34 289 -23.68 289 -23 289 C-22.71898437 288.12988281 -22.43796875 287.25976562 -22.1484375 286.36328125 C-21.08303582 283.24317632 -19.90222957 280.22600474 -18.625 277.1875 C-17.96757813 275.62128906 -17.96757813 275.62128906 -17.296875 274.0234375 C-16.1874826 271.43708294 -15.04283812 268.87276049 -13.875 266.3125 C-10.83562737 259.49842265 -8.8849823 252.77597887 -7.52734375 245.44921875 C-7.03014809 243.14002112 -6.36573758 241.03076752 -5.5625 238.8125 C-1.09364128 225.79156139 -0.29036701 212.64093709 0 199 C0.04882324 197.175896 0.04882324 197.175896 0.09863281 195.31494141 C1.72223889 164.25314853 1.72223889 164.25314853 -6 135 C-6.34334831 133.34320817 -6.63083345 131.6742849 -6.875 130 C-8.51875225 120.4050741 -12.04664824 111.57186855 -15.94921875 102.69140625 C-16.95296359 100.12047616 -17.55125203 97.71714433 -18 95 C-18.66 95 -19.32 95 -20 95 C-20.99 91.7 -21.98 88.4 -23 85 C-23.66 85 -24.32 85 -25 85 C-25.39832031 84.00613281 -25.79664063 83.01226562 -26.20703125 81.98828125 C-28.00135458 77.81062618 -30.26251056 74.02543879 -32.6875 70.1875 C-33.12304199 69.49043945 -33.55858398 68.79337891 -34.00732422 68.07519531 C-37.1876745 63.06773669 -40.66621893 58.46427426 -44.6015625 54.015625 C-46 52 -46 52 -46 48 C-44.20024892 45.9313206 -42.43523558 44.10725119 -40.4375 42.25 C-37.04053861 39.02778819 -33.77072806 35.79299214 -30.72265625 32.234375 C-25.61112065 26.30496543 -19.9560561 20.91193586 -14.3828125 15.421875 C-9.3676394 10.45243296 -4.55325451 5.3975666 0 0 Z " fill="#FDFDFD" transform="translate(589,195)"/>
<path d="M0 0 C4.67895679 0.69848833 7.3437358 3.77723593 10.625 6.9375 C11.59385132 7.85511108 11.59385132 7.85511108 12.58227539 8.79125977 C18.72021213 14.64327004 24.70928044 20.64816881 30.65673828 26.69311523 C35.83705208 31.93631689 41.2455509 36.80901405 46.859375 41.58032227 C48.5625 43.125 48.5625 43.125 51 46 C50.7187826 49.71565964 49.52600053 52.07755541 47.375 55.0625 C44.85861409 58.69727965 42.5054763 62.38433285 40.25 66.1875 C39.67765625 67.15042969 39.1053125 68.11335938 38.515625 69.10546875 C36.99161489 72.01601383 35.94902438 74.85984579 35 78 C34.34 78 33.68 78 33 78 C32.608125 79.216875 32.21625 80.43375 31.8125 81.6875 C30.53844471 85.54572405 29.08424051 89.29572257 27.5625 93.0625 C25.27157083 98.91094456 23.66986353 104.77726267 22.25610352 110.88305664 C21.0874135 115.9125865 21.0874135 115.9125865 20 117 C19.64979331 118.70100391 19.34497947 120.41144686 19.0625 122.125 C18.51625189 125.28514645 17.92811522 128.23811833 17 131.3125 C13.79111285 143.14527136 13.68319074 155.0648915 13.73925781 167.23144531 C13.74998318 169.99566577 13.73930075 172.75923658 13.7265625 175.5234375 C13.71897405 185.56509697 14.27563936 195.09160203 16 205 C16.31800142 207.27006946 16.63111711 209.54083325 16.9375 211.8125 C17.62549148 216.2209377 18.57278556 220.23754159 20.109375 224.41796875 C21.02508466 227.07272351 21.75559529 229.7553492 22.48608398 232.46582031 C31.02122882 263.51191258 46.9966908 294.24582074 69.46142578 317.51367188 C72.97284653 321.3117639 72.97284653 321.3117639 73.1015625 324.57421875 C71.68495031 327.69377963 69.87627523 329.47369431 67.375 331.8125 C64.36195894 334.65402949 61.51060219 337.52346397 58.8203125 340.66796875 C53.47463659 346.85513405 47.55712168 352.48611908 41.73828125 358.22265625 C36.60519778 363.31129744 31.6551657 368.46856781 27 374 C23.77555746 372.92518582 23.16725333 372.32427942 21.0625 369.8125 C20.4540625 369.09320312 19.845625 368.37390625 19.21875 367.6328125 C18.12046875 366.32957031 18.12046875 366.32957031 17 365 C16.05381018 363.91255755 15.10576908 362.82672417 14.15625 361.7421875 C8.0505535 354.74585338 2.26337326 347.66330667 -3 340 C-3.39429199 339.42636719 -3.78858398 338.85273437 -4.19482422 338.26171875 C-20 315.1707276 -20 315.1707276 -20 311 C-20.66 311 -21.32 311 -22 311 C-22.83764268 309.04350603 -23.66999059 307.08474444 -24.5 305.125 C-24.9640625 304.03445313 -25.428125 302.94390625 -25.90625 301.8203125 C-27 299 -27 299 -27 297 C-27.66 297 -28.32 297 -29 297 C-29.50615298 295.73160474 -30.00469099 294.46016898 -30.5 293.1875 C-30.91765625 292.12595703 -30.91765625 292.12595703 -31.34375 291.04296875 C-32 289 -32 289 -32 286 C-32.66 286 -33.32 286 -34 286 C-35.65943893 280.95210749 -37.31323857 275.90241272 -38.9621582 270.85107422 C-39.52218885 269.13802037 -40.08367569 267.42544179 -40.64672852 265.71337891 C-43.77140884 256.20879572 -46.7542653 246.75851284 -49 237 C-49.35270868 235.58947837 -49.70675534 234.17929024 -50.0625 232.76953125 C-57.91379107 200.34434934 -58.50651057 165.02165192 -54 132 C-53.8546582 130.90139648 -53.70931641 129.80279297 -53.55957031 128.67089844 C-51.31727734 112.38406386 -47.55588544 97.23079281 -41.98828125 81.765625 C-40.46953979 77.53026638 -39.34491334 73.38350125 -38.4543457 68.97900391 C-37.77646928 66.02636216 -36.64489103 63.33409315 -35.4375 60.5625 C-35.00308594 59.55316406 -34.56867188 58.54382813 -34.12109375 57.50390625 C-33.44296113 55.9893313 -32.74213222 54.48426443 -32 53 C-31.34 53 -30.68 53 -30 53 C-29.87625 52.44570313 -29.7525 51.89140625 -29.625 51.3203125 C-28.93077522 48.743003 -28.00386653 46.34775947 -27 43.875 C-26.4740625 42.57175781 -26.4740625 42.57175781 -25.9375 41.2421875 C-25.33781649 39.80794445 -24.69522276 38.39044553 -24 37 C-23.34 37 -22.68 37 -22 37 C-21.90332031 36.30390625 -21.80664062 35.6078125 -21.70703125 34.890625 C-18.90521015 23.43566582 -8.29892838 8.29892838 0 0 Z " fill="#FDFDFD" transform="translate(139,210)"/>
<path d="M0 0 C2.2301945 0.92900244 4.18794425 2.00879383 6.23803711 3.2890625 C7.04499023 3.78631836 7.85194336 4.28357422 8.68334961 4.79589844 C9.54186523 5.32860352 10.40038086 5.86130859 11.28491211 6.41015625 C32.83619739 19.52259171 55.37641707 29.23674121 80.03491211 34.84765625 C80.95739746 35.05938477 81.87988281 35.27111328 82.83032227 35.48925781 C119.95711109 43.60812933 162.71153157 40.92331048 198.2644043 27.63964844 C205.21363782 25.12775953 205.21363782 25.12775953 209.03491211 26.84765625 C210.88117006 28.81699806 212.40414647 30.67578075 213.97241211 32.84765625 C214.93895366 34.13187346 215.90781191 35.41434946 216.87866211 36.6953125 C217.38913086 37.37352051 217.89959961 38.05172852 218.42553711 38.75048828 C221.17995136 42.33975079 224.07970444 45.8071428 226.97241211 49.28515625 C232.05771664 55.42507169 237.08080594 61.60950352 242.04052734 67.85131836 C242.49371338 68.42116455 242.94689941 68.99101074 243.41381836 69.578125 C244.06181396 70.39869385 244.06181396 70.39869385 244.72290039 71.23583984 C245.61664022 72.33380604 246.5385221 73.40931633 247.48364258 74.46337891 C251.03491211 78.44593635 251.03491211 78.44593635 251.03491211 82.84765625 C249.59825195 83.37552734 249.59825195 83.37552734 248.13256836 83.9140625 C246.78724856 84.41203775 245.44222077 84.91080229 244.09741211 85.41015625 C243.37448975 85.67828125 242.65156738 85.94640625 241.90673828 86.22265625 C237.51957343 87.86636364 233.1980433 89.61298129 228.89697266 91.46923828 C211.92623857 98.74269882 194.19957827 102.83322464 176.03491211 105.84765625 C175.15851074 105.99332031 174.28210938 106.13898438 173.37915039 106.2890625 C170.76609681 106.71615464 168.1514129 107.12974762 165.53491211 107.53515625 C164.77106201 107.65463623 164.00721191 107.77411621 163.22021484 107.8972168 C151.37716283 109.64925266 139.49435605 110.08727586 127.53491211 110.09765625 C126.82480988 110.09833099 126.11470764 110.09900574 125.38308716 110.09970093 C65.05920012 110.00990452 8.76463383 90.71206227 -40.62280273 56.46826172 C-43.38130451 54.55967982 -46.16620847 52.69632787 -48.96508789 50.84765625 C-48.47075403 46.58820808 -46.06585093 44.61852958 -43.08227539 41.70703125 C-42.58978302 41.2211554 -42.09729065 40.73527954 -41.58987427 40.23468018 C-40.01356561 38.68172954 -38.42749463 37.13925386 -36.84008789 35.59765625 C-34.77113107 33.57551712 -32.70648919 31.5490537 -30.64477539 29.51953125 C-30.14301285 29.02617783 -29.64125031 28.5328244 -29.12428284 28.02452087 C-25.79240784 24.72666819 -22.66064638 21.31975177 -19.61938477 17.75537109 C-16.47754974 14.13224552 -13.13274684 10.70962365 -9.77758789 7.28515625 C-9.07956055 6.54974609 -8.3815332 5.81433594 -7.66235352 5.05664062 C-6.98495117 4.36763672 -6.30754883 3.67863281 -5.60961914 2.96875 C-5.00480713 2.34411865 -4.39999512 1.7194873 -3.77685547 1.07592773 C-1.96508789 -0.15234375 -1.96508789 -0.15234375 0 0 Z " fill="#FCFDFD" transform="translate(243.965087890625,561.15234375)"/>
<path d="M0 0 C8.62330448 -0.39659477 17.24271585 -0.6972156 25.87292671 -0.88080692 C29.88229717 -0.96900333 33.88537032 -1.08818609 37.89111328 -1.2824707 C65.92366352 -2.60711203 65.92366352 -2.60711203 73.13232422 3.65112305 C76.27750746 7.10827309 78.67234241 10.82244474 80.85546875 14.94355774 C82.52681897 17.94656463 84.61940156 20.35026789 86.875 22.9375 C89.56814915 26.22967682 92.23096176 29.54329859 94.875 32.875 C97.94685275 36.73154385 101.11086271 40.50120844 104.3125 44.25 C108.13541641 48.72868903 111.82855184 53.28489884 115.4375 57.9375 C119.64072352 63.35355288 124.02507956 68.57379804 128.51928711 73.74975586 C131.9692988 77.74348004 135.26852184 81.82802135 138.5 86 C142.74990358 91.48602938 147.18215871 96.77855144 151.72387695 102.0246582 C155.27442294 106.1318797 158.7069854 110.31463371 162.07421875 114.57421875 C164.18947334 117.23866722 166.34133267 119.87061815 168.5 122.5 C171.32043802 125.9365064 174.11295306 129.39143876 176.875 132.875 C179.94685275 136.73154385 183.11086271 140.50120844 186.3125 144.25 C190.13541469 148.72868701 193.82860145 153.28486093 197.4375 157.9375 C201.73086117 163.47077091 206.21209775 168.80708079 210.79833984 174.09912109 C214.04406106 177.85380873 217.13915421 181.68354228 220.13671875 185.640625 C221.66185809 187.57182869 223.2220927 189.43734584 224.83203125 191.296875 C225.333396 191.87751709 225.83476074 192.45815918 226.35131836 193.05639648 C227.34739055 194.20440919 228.34929216 195.34739659 229.35766602 196.48461914 C231.79437064 199.29600308 233.28121178 201.3596066 234 205 C225.11620925 205.3964722 216.23552161 205.69716884 207.34477043 205.88080692 C203.21443161 205.96902276 199.0902 206.08825404 194.96337891 206.2824707 C166.08789524 207.60628918 166.08789524 207.60628918 158.82714844 201.38623047 C155.68505085 197.95011636 153.32670563 194.25914557 151.17796326 190.14102173 C149.33281881 186.78735655 146.93109936 183.94018376 144.5 181 C143.61545488 179.87216516 142.73358935 178.74221908 141.85546875 177.609375 C137.98374671 172.68197902 133.97604089 167.86616692 129.98266602 163.03735352 C126.31382643 158.60006468 122.68534638 154.13532386 119.1015625 149.62890625 C116.35710024 146.19577781 113.5854782 142.78511263 110.8125 139.375 C110.26045898 138.69606689 109.70841797 138.01713379 109.13964844 137.31762695 C107.42672111 135.21151616 105.71342717 133.10570417 104 131 C86.39162896 109.36031733 86.39162896 109.36031733 80.45703125 101.73828125 C75.47272192 95.34362072 70.4025716 89.05914397 65.13012695 82.8996582 C61.28787134 78.39025413 57.6218609 73.75730494 53.97998047 69.08544922 C50.52796049 64.65943571 47.00273873 60.30042871 43.4375 55.96484375 C36.32809765 47.31734955 29.25430281 38.64455711 22.375 29.8125 C18.74902173 25.15732258 15.02077295 20.61095303 11.1875 16.125 C0 3.01823968 0 3.01823968 0 0 Z " fill="#FCFDFD" transform="translate(361,438)"/>
<path d="M0 0 C0.99 0.33 1.98 0.66 3 1 C-5.66666667 9.66666667 -14.33333333 18.33333333 -23 27 C-23.66 26.67 -24.32 26.34 -25 26 C-24.23707642 25.24493164 -24.23707642 25.24493164 -23.45874023 24.47460938 C-21.11559272 22.15248022 -18.77653398 19.8262723 -16.4375 17.5 C-15.23770508 16.31277344 -15.23770508 16.31277344 -14.01367188 15.1015625 C-9.12863982 10.23646935 -4.45655334 5.26114581 0 0 Z " fill="#D4DAE3" transform="translate(589,195)"/>
</svg>
